<?xml version="1.0" standalone="no"?>
<!DOCTYPE svg PUBLIC "-//W3C//DTD SVG 20010904//EN"
 "http://www.w3.org/TR/2001/REC-SVG-20010904/DTD/svg10.dtd">
<svg version="1.0" xmlns="http://www.w3.org/2000/svg"
 width="64.000000pt" height="64.000000pt" viewBox="0 0 64.000000 64.000000"
 preserveAspectRatio="xMidYMid meet">

<g transform="translate(0.000000,64.000000) scale(0.100000,-0.100000)"
fill="#000000" stroke="none">
<path d="M95 626 c-41 -18 -83 -69 -90 -109 -4 -18 -5 -118 -3 -224 3 -210 5
-218 72 -267 26 -20 41 -21 246 -21 205 0 220 1 246 21 68 51 69 53 69 294 0
205 -1 220 -21 246 -50 67 -55 69 -282 71 -157 2 -214 0 -237 -11z m229 -160
c18 -7 46 -29 62 -48 19 -24 41 -37 65 -42 54 -10 84 -47 84 -107 0 -40 -5
-54 -28 -76 -26 -27 -32 -28 -144 -31 -138 -4 -180 6 -222 53 -111 127 26 317
183 251z"/>
</g>
</svg>
